<?xml version="1.0" encoding="UTF-8" standalone="no"?>
<!-- Generator: Adobe Illustrator 24.1.1, SVG Export Plug-In . SVG Version: 6.00 Build 0)  -->

<svg
   xmlns:dc="http://purl.org/dc/elements/1.1/"
   xmlns:cc="http://creativecommons.org/ns#"
   xmlns:rdf="http://www.w3.org/1999/02/22-rdf-syntax-ns#"
   xmlns:svg="http://www.w3.org/2000/svg"
   xmlns="http://www.w3.org/2000/svg"
   xmlns:sodipodi="http://sodipodi.sourceforge.net/DTD/sodipodi-0.dtd"
   xmlns:inkscape="http://www.inkscape.org/namespaces/inkscape"
   version="1.1"
   id="Layer_1"
   x="0px"
   y="0px"
   viewBox="0 0 1000 350"
   xml:space="preserve"
   sodipodi:docname="go-logo-2020.svg"
   width="1000"
   height="350"
   inkscape:version="0.92.4 (f8dce91, 2019-08-02)"><metadata
   id="metadata99"><rdf:RDF><cc:Work
       rdf:about=""><dc:format>image/svg+xml</dc:format><dc:type
         rdf:resource="http://purl.org/dc/dcmitype/StillImage" /><dc:title></dc:title></cc:Work></rdf:RDF></metadata><defs
   id="defs97" /><sodipodi:namedview
   pagecolor="#ffffff"
   bordercolor="#666666"
   borderopacity="1"
   objecttolerance="10"
   gridtolerance="10"
   guidetolerance="10"
   inkscape:pageopacity="0"
   inkscape:pageshadow="2"
   inkscape:window-width="1862"
   inkscape:window-height="928"
   id="namedview95"
   showgrid="false"
   fit-margin-top="0"
   fit-margin-inline-start="0"
   fit-margin-inline-end="0"
   fit-margin-bottom="0"
   inkscape:zoom="1.1146667"
   inkscape:cx="739.44"
   inkscape:cy="171.02"
   inkscape:window-x="58"
   inkscape:window-y="28"
   inkscape:window-maximized="1"
   inkscape:current-layer="Layer_1" />
<style
   type="text/css"
   id="style70">
	.st0{fill:#F5333F;}
	.st1{fill:#BDBEC0;stroke:#BDBEC0;stroke-width:2;stroke-miterlimit:10;}
	.st2{fill:#EF3741;}
	.st3{fill:#333132;}
</style>
<g
   id="g82"
   transform="translate(-9.6628708,0.39153865)">
	<path
   class="st0"
   d="m 200.62,75.14 c 0,-10.71 -8.71,-19.41 -19.41,-19.41 -10.71,0 -19.41,8.7 -19.41,19.41 0,10.71 8.7,19.42 19.41,19.42 10.7,0 19.41,-8.71 19.41,-19.42"
   id="path72"
   inkscape:connector-curvature="0"
   style="fill:#f5333f" />
	<path
   class="st0"
   d="m 117.97,242.94 c -10.71,0 -19.42,8.71 -19.42,19.42 0,10.7 8.71,19.4 19.42,19.4 10.7,0 19.41,-8.7 19.41,-19.4 0,-10.71 -8.71,-19.42 -19.41,-19.42"
   id="path74"
   inkscape:connector-curvature="0"
   style="fill:#f5333f" />
	<path
   class="st0"
   d="m 181.21,133.42 c -14.66,0 -26.53,11.89 -26.53,26.55 0,14.65 11.88,26.53 26.53,26.53 14.66,0 26.53,-11.89 26.53,-26.53 0.01,-14.66 -11.87,-26.55 -26.53,-26.55"
   id="path76"
   inkscape:connector-curvature="0"
   style="fill:#f5333f" />
	<path
   class="st0"
   d="m 244.46,242.94 c -10.7,0 -19.41,8.71 -19.41,19.42 0,10.7 8.7,19.4 19.41,19.4 10.7,0 19.41,-8.7 19.41,-19.4 0,-10.71 -8.72,-19.42 -19.41,-19.42"
   id="path78"
   inkscape:connector-curvature="0"
   style="fill:#f5333f" />
	<path
   class="st0"
   d="m 244.46,291.08 c -15.84,0 -28.73,-12.89 -28.73,-28.73 0,-8.77 3.97,-16.63 10.19,-21.9 l -27.41,-45.78 c -5.21,2.6 -11.06,4.1 -17.29,4.1 -6.23,0 -12.08,-1.5 -17.3,-4.1 l -27.41,45.78 c 6.23,5.27 10.18,13.13 10.18,21.9 0,15.84 -12.88,28.73 -28.72,28.73 -15.84,0 -28.73,-12.89 -28.73,-28.73 0,-15.84 12.89,-28.73 28.73,-28.73 3.72,0 7.28,0.74 10.55,2.04 l 27.6,-46.11 c -8.39,-7.12 -13.72,-17.72 -13.72,-29.58 0,-19.86 14.92,-36.21 34.16,-38.51 v -18 c -13.63,-2.23 -24.07,-14.06 -24.07,-28.31 0,-15.84 12.89,-28.73 28.73,-28.73 15.84,0 28.72,12.89 28.72,28.73 0,14.25 -10.44,26.08 -24.06,28.31 v 18 c 19.25,2.31 34.16,18.65 34.16,38.51 0,11.87 -5.34,22.47 -13.73,29.58 l 27.61,46.11 c 3.27,-1.3 6.83,-2.04 10.55,-2.04 15.84,0 28.72,12.89 28.72,28.73 0,15.84 -12.89,28.73 -28.73,28.73 M 58.18,160.12 c 0,-20.73 13,-38.01 34.75,-38.01 15.85,0 29.16,8.45 31.09,24.8 h -12.4 c -1.21,-9.54 -9.54,-14.43 -18.69,-14.43 -15.56,0 -22.05,13.71 -22.05,27.64 0,13.93 6.49,27.64 22.05,27.64 13,0.21 20.11,-7.62 20.32,-19.91 h -19.3 v -9.66 h 30.89 v 38.21 h -8.13 l -1.93,-8.53 c -6.81,7.72 -13,10.26 -21.84,10.26 -21.76,0 -34.76,-17.28 -34.76,-38.01 M 179.98,4.71 c -93.56,0 -169.42,75.85 -169.42,169.43 0,93.56 75.86,169.42 169.42,169.42 93.57,0 169.42,-75.86 169.42,-169.42 C 349.4,80.56 273.56,4.71 179.98,4.71"
   id="path80"
   inkscape:connector-curvature="0"
   style="fill:#f5333f" />
</g>
<polyline
   class="st1"
   points="461.97,6.09 461.97,345.02 460.12,345.02 460.12,6.09 "
   id="polyline84"
   style="fill:#bdbec0;stroke:#bdbec0;stroke-width:2;stroke-miterlimit:10"
   transform="translate(-9.6628708,0.39153865)" />
<g
   id="g92"
   transform="translate(-9.6628708,0.39153865)">
	<polygon
   class="st2"
   points="631.54,254.71 631.54,198.71 631.55,198.73 575.54,198.73 575.54,150.72 631.55,150.72 631.54,150.69 631.54,94.67 679.55,94.67 679.55,150.69 679.54,150.71 735.55,150.71 735.55,198.72 679.54,198.72 679.55,198.71 679.55,254.71 "
   id="polygon86"
   style="fill:#ef3741" />
	<path
   class="st2"
   d="m 809.82,173.84 c 0,-37.3 30.24,-67.54 67.54,-67.54 8.31,0 16.26,1.5 23.6,4.25 -13.82,-10.94 -31.27,-17.47 -50.25,-17.47 -44.76,0 -81.04,36.29 -81.04,81.05 0,44.76 36.28,81.04 81.04,81.04 19.62,0 37.61,-6.98 51.63,-18.57 -7.73,3.07 -16.16,4.77 -24.98,4.77 -37.3,0.01 -67.54,-30.23 -67.54,-67.53"
   id="path88"
   inkscape:connector-curvature="0"
   style="fill:#ef3741" />
	
</g>
</svg>